<mxfile host="app.diagrams.net" modified="2023-10-08T05:40:55.830Z" agent="Mozilla/5.0 (Windows NT 10.0; Win64; x64) AppleWebKit/537.36 (KHTML, like Gecko) Chrome/117.0.0.0 Safari/537.36 Edg/117.0.2045.47" version="22.0.4" etag="PK0U2--z3hVu-86YI8UX" type="github">
  <diagram name="Page-1" id="rIlDim0akFHjqdQ1LH3T">
    <mxGraphModel>
      <root>
        <mxCell id="0" />
        <mxCell id="1" parent="0" />
      </root>
    </mxGraphModel>
  </diagram>
</mxfile>
